HIERARCHY
ROOT Hips
{
	OFFSET 0.000000 83.214638 0.000000
	CHANNELS 6 Xposition Yposition Zposition Xrotation Yrotation Zrotation
	JOINT Pelvis
	{
		OFFSET 0.000000 0.000000 0.000000
		CHANNELS 3 Xrotation Yrotation Zrotation
		JOINT LeftUpLeg
		{
			OFFSET 8.479700 -4.795502 -0.379100
			CHANNELS 3 Xrotation Yrotation Zrotation
			JOINT LeftLeg
			{
				OFFSET 0.024144 -32.555107 0.112900
				CHANNELS 3 Xrotation Yrotation Zrotation
				JOINT LeftFoot
				{
					OFFSET -0.024144 -32.638630 -3.012600
					CHANNELS 3 Xrotation Yrotation Zrotation
					JOINT LeftToeBase
					{
						OFFSET 0.970200 -13.225400 11.864200
						CHANNELS 3 Xrotation Yrotation Zrotation
						End Site
						{
							OFFSET 0.000000 12.319262 0.000000
						}
					}
					JOINT LFootTongue
					{
						OFFSET 1.142400 -1.059800 6.665200
						CHANNELS 3 Xrotation Yrotation Zrotation
						End Site
						{
							OFFSET 0.000000 12.319262 0.000000
						}
					}
				}
				JOINT LeftPantLeg
				{
					OFFSET 0.918482 -16.533964 -2.284700
					CHANNELS 3 Xrotation Yrotation Zrotation
					End Site
					{
						OFFSET 0.350399 24.744368 0.000000
					}
				}
			}
		}
		JOINT RightUpLeg
		{
			OFFSET -8.479700 -4.795502 -0.379100
			CHANNELS 3 Xrotation Yrotation Zrotation
			JOINT RightLeg
			{
				OFFSET -0.023144 -32.555092 0.112900
				CHANNELS 3 Xrotation Yrotation Zrotation
				JOINT RightFoot
				{
					OFFSET 0.023144 -32.638641 -3.012700
					CHANNELS 3 Xrotation Yrotation Zrotation
					JOINT RightToeBase
					{
						OFFSET -0.970200 -13.225400 11.864200
						CHANNELS 3 Xrotation Yrotation Zrotation
						End Site
						{
							OFFSET 0.000000 12.319244 0.000000
						}
					}
					JOINT RFootTongue
					{
						OFFSET -1.142200 -1.059800 6.665200
						CHANNELS 3 Xrotation Yrotation Zrotation
						End Site
						{
							OFFSET 0.000000 12.319243 0.000000
						}
					}
				}
				JOINT RightPantLeg
				{
					OFFSET -0.919482 -16.533978 -2.284800
					CHANNELS 3 Xrotation Yrotation Zrotation
					End Site
					{
						OFFSET -0.350400 24.744419 0.000000
					}
				}
			}
		}
	}
	JOINT Spine
	{
		OFFSET 0.000000 7.722000 1.166200
		CHANNELS 3 Xrotation Yrotation Zrotation
		JOINT Spine1
		{
			OFFSET 0.000000 12.024101 0.248800
			CHANNELS 3 Xrotation Yrotation Zrotation
			JOINT Spine2
			{
				OFFSET 0.000000 11.502998 -0.491200
				CHANNELS 3 Xrotation Yrotation Zrotation
				JOINT Neck
				{
					OFFSET 0.000000 18.430702 -3.123100
					CHANNELS 3 Xrotation Yrotation Zrotation
					JOINT Head
					{
						OFFSET 0.000000 9.051102 1.034000
						CHANNELS 3 Xrotation Yrotation Zrotation
						JOINT HairB
						{
							OFFSET 0.208400 24.786102 24.822300
							CHANNELS 3 Xrotation Yrotation Zrotation
							End Site
							{
								OFFSET 0.000000 32.263779 0.000000
							}
						}
						JOINT HairA
						{
							OFFSET -7.081100 24.428299 23.196600
							CHANNELS 3 Xrotation Yrotation Zrotation
							End Site
							{
								OFFSET 0.000000 32.263779 0.000000
							}
						}
						JOINT Hat
						{
							OFFSET 16.728800 15.048294 -15.439601
							CHANNELS 3 Xrotation Yrotation Zrotation
							End Site
							{
								OFFSET 0.000000 32.263779 0.000000
							}
						}
					}
				}
				JOINT LeftShoulder
				{
					OFFSET 6.197800 13.665199 -4.064700
					CHANNELS 3 Xrotation Yrotation Zrotation
					JOINT LeftArm
					{
						OFFSET 7.778100 -0.187103 -1.709300
						CHANNELS 3 Xrotation Yrotation Zrotation
						JOINT LeftForeArm
						{
							OFFSET 22.049376 0.000000 0.000000
							CHANNELS 3 Xrotation Yrotation Zrotation
							JOINT LeftHand
							{
								OFFSET 23.009392 0.000000 0.000000
								CHANNELS 3 Xrotation Yrotation Zrotation
								JOINT LeftHandThumb1
								{
									OFFSET 3.507191 -2.063065 3.133727
									CHANNELS 3 Xrotation Yrotation Zrotation
									JOINT LeftHandThumb2
									{
										OFFSET 3.101337 -1.790558 1.790558
										CHANNELS 3 Xrotation Yrotation Zrotation
										JOINT LeftHandThumb3
										{
											OFFSET 3.058640 -1.765907 1.765906
											CHANNELS 3 Xrotation Yrotation Zrotation
											End Site
											{
												OFFSET -0.415260 3.926476 -0.049563
											}
										}
									}
								}
								JOINT LeftHandIndex1
								{
									OFFSET 11.334419 -0.901459 3.706815
									CHANNELS 3 Xrotation Yrotation Zrotation
									JOINT LeftHandIndex2
									{
										OFFSET 3.283112 0.000000 0.000000
										CHANNELS 3 Xrotation Yrotation Zrotation
										JOINT LeftHandIndex3
										{
											OFFSET 3.323853 0.000000 0.000000
											CHANNELS 3 Xrotation Yrotation Zrotation
											End Site
											{
												OFFSET -1.135597 3.097809 0.402452
											}
										}
									}
								}
								JOINT LeftHandMiddle1
								{
									OFFSET 11.335861 0.000000 0.000000
									CHANNELS 3 Xrotation Yrotation Zrotation
									JOINT LeftHandMiddle2
									{
										OFFSET 3.410492 0.000000 0.000000
										CHANNELS 3 Xrotation Yrotation Zrotation
										JOINT LeftHandMiddle3
										{
											OFFSET 3.312172 0.000000 0.000000
											CHANNELS 3 Xrotation Yrotation Zrotation
											End Site
											{
												OFFSET -1.150200 3.080154 0.400270
											}
										}
									}
								}
								JOINT LeftHandRing1
								{
									OFFSET 11.514786 -0.013176 -3.003090
									CHANNELS 3 Xrotation Yrotation Zrotation
									JOINT LeftHandRing2
									{
										OFFSET 3.053307 0.000000 0.000000
										CHANNELS 3 Xrotation Yrotation Zrotation
										JOINT LeftHandRing3
										{
											OFFSET 3.295807 0.000000 0.000000
											CHANNELS 3 Xrotation Yrotation Zrotation
											End Site
											{
												OFFSET -1.281006 3.013344 0.375733
											}
										}
									}
								}
								JOINT LeftHandPinky1
								{
									OFFSET 10.518692 -0.960396 -5.730441
									CHANNELS 3 Xrotation Yrotation Zrotation
									JOINT LeftHandPinky2
									{
										OFFSET 2.861649 0.000000 0.000000
										CHANNELS 3 Xrotation Yrotation Zrotation
										JOINT LeftHandPinky3
										{
											OFFSET 2.863380 0.000000 0.000000
											CHANNELS 3 Xrotation Yrotation Zrotation
											End Site
											{
												OFFSET -0.843597 2.711159 0.369971
											}
										}
									}
								}
							}
							JOINT LSleeve
							{
								OFFSET 6.676277 -0.344902 -1.011730
								CHANNELS 3 Xrotation Yrotation Zrotation
								End Site
								{
									OFFSET 0.000000 14.885353 0.000000
								}
							}
						}
					}
				}
				JOINT RightShoulder
				{
					OFFSET -6.197800 13.665199 -4.064700
					CHANNELS 3 Xrotation Yrotation Zrotation
					JOINT RightArm
					{
						OFFSET -7.778100 -0.187103 -1.709300
						CHANNELS 3 Xrotation Yrotation Zrotation
						JOINT RightForeArm
						{
							OFFSET -22.049376 0.000000 0.000000
							CHANNELS 3 Xrotation Yrotation Zrotation
							JOINT RightHand
							{
								OFFSET -23.009392 0.000000 0.000000
								CHANNELS 3 Xrotation Yrotation Zrotation
								JOINT RightHandThumb1
								{
									OFFSET -3.507191 -2.063065 3.133727
									CHANNELS 3 Xrotation Yrotation Zrotation
									JOINT RightHandThumb2
									{
										OFFSET -3.101337 -1.790558 1.790558
										CHANNELS 3 Xrotation Yrotation Zrotation
										JOINT RightHandThumb3
										{
											OFFSET -3.058640 -1.765907 1.765906
											CHANNELS 3 Xrotation Yrotation Zrotation
											End Site
											{
												OFFSET 0.415260 3.926476 -0.049563
											}
										}
									}
								}
								JOINT RightHandIndex1
								{
									OFFSET -11.334419 -0.901459 3.706815
									CHANNELS 3 Xrotation Yrotation Zrotation
									JOINT RightHandIndex2
									{
										OFFSET -3.283112 0.000000 0.000000
										CHANNELS 3 Xrotation Yrotation Zrotation
										JOINT RightHandIndex3
										{
											OFFSET -3.323853 0.000000 0.000000
											CHANNELS 3 Xrotation Yrotation Zrotation
											End Site
											{
												OFFSET 1.135597 3.097809 0.402452
											}
										}
									}
								}
								JOINT RightHandMiddle1
								{
									OFFSET -11.335861 0.000000 0.000000
									CHANNELS 3 Xrotation Yrotation Zrotation
									JOINT RightHandMiddle2
									{
										OFFSET -3.410492 0.000000 0.000000
										CHANNELS 3 Xrotation Yrotation Zrotation
										JOINT RightHandMiddle3
										{
											OFFSET -3.312172 0.000000 0.000000
											CHANNELS 3 Xrotation Yrotation Zrotation
											End Site
											{
												OFFSET 1.150200 3.080154 0.400270
											}
										}
									}
								}
								JOINT RightHandRing1
								{
									OFFSET -11.514786 -0.013176 -3.003090
									CHANNELS 3 Xrotation Yrotation Zrotation
									JOINT RightHandRing2
									{
										OFFSET -3.053307 0.000000 0.000000
										CHANNELS 3 Xrotation Yrotation Zrotation
										JOINT RightHandRing3
										{
											OFFSET -3.295807 0.000000 0.000000
											CHANNELS 3 Xrotation Yrotation Zrotation
											End Site
											{
												OFFSET 1.281006 3.013344 0.375733
											}
										}
									}
								}
								JOINT RightHandPinky1
								{
									OFFSET -10.518692 -0.960396 -5.730441
									CHANNELS 3 Xrotation Yrotation Zrotation
									JOINT RightHandPinky2
									{
										OFFSET -2.861649 0.000000 0.000000
										CHANNELS 3 Xrotation Yrotation Zrotation
										JOINT RightHandPinky3
										{
											OFFSET -2.863380 0.000000 0.000000
											CHANNELS 3 Xrotation Yrotation Zrotation
											End Site
											{
												OFFSET 0.843597 2.711159 0.369971
											}
										}
									}
								}
							}
							JOINT RSleeve
							{
								OFFSET -6.676277 -0.344902 -1.011730
								CHANNELS 3 Xrotation Yrotation Zrotation
								End Site
								{
									OFFSET 0.000000 14.885353 0.000000
								}
							}
						}
					}
				}
				JOINT Backpack
				{
					OFFSET 0.000000 -2.471497 36.677502
					CHANNELS 3 Xrotation Yrotation Zrotation
					End Site
					{
						OFFSET 0.000000 20.427315 0.000000
					}
				}
				JOINT Hood
				{
					OFFSET 0.000000 18.754097 -10.431000
					CHANNELS 3 Xrotation Yrotation Zrotation
					JOINT Hood1
					{
						OFFSET 0.000000 -5.011002 -7.685901
						CHANNELS 3 Xrotation Yrotation Zrotation
						End Site
						{
							OFFSET 0.000000 9.175140 0.000000
						}
					}
				}
				JOINT LHoodieString
				{
					OFFSET 5.250500 16.397697 3.089900
					CHANNELS 3 Xrotation Yrotation Zrotation
					JOINT LHoodieString1
					{
						OFFSET 0.257700 -6.364304 3.694600
						CHANNELS 3 Xrotation Yrotation Zrotation
						JOINT LHoodieString2
						{
							OFFSET 0.000000 -9.643799 2.679100
							CHANNELS 3 Xrotation Yrotation Zrotation
							End Site
							{
								OFFSET 0.000000 10.009018 0.000000
							}
						}
					}
				}
				JOINT RHoodieString
				{
					OFFSET -5.250500 16.397697 3.089900
					CHANNELS 3 Xrotation Yrotation Zrotation
					JOINT RHoodieString1
					{
						OFFSET -0.257700 -6.364304 3.694600
						CHANNELS 3 Xrotation Yrotation Zrotation
						JOINT RHoodieString2
						{
							OFFSET 0.000000 -9.643799 2.679100
							CHANNELS 3 Xrotation Yrotation Zrotation
							End Site
							{
								OFFSET 0.000000 10.009018 0.000000
							}
						}
					}
				}
			}
			JOINT LBackpack_Strap
			{
				OFFSET 15.223200 -7.719803 -6.610900
				CHANNELS 3 Xrotation Yrotation Zrotation
				End Site
				{
					OFFSET 0.000000 16.040596 0.000000
				}
			}
			JOINT RBackpack_Strap
			{
				OFFSET -15.223000 -7.719803 -6.610900
				CHANNELS 3 Xrotation Yrotation Zrotation
				End Site
				{
					OFFSET 0.000000 16.040596 0.000000
				}
			}
		}
	}
	JOINT BoyFacialAnim_Joint
	{
		OFFSET 1.000000 -82.208099 -1.550900
		CHANNELS 3 Xrotation Yrotation Zrotation
		End Site
		{
			OFFSET 0.000000 30.012791 0.000000
		}
	}
}
MOTION
Frames: 4
Frame Time: 0.033333
3.895667 43.140953 17.620872 1.151083 3.156045 -0.058963 0.000000 -0.000000 0.000000 -18.266554 -5.940324 10.688850 117.305617 9.398169 -4.267852 -8.021766 2.669657 -5.100358 0.000000 -0.000000 0.000001 0.000000 -0.000000 0.000001 -0.000001 0.000004 -0.000000 -13.037797 -0.208468 -12.397360 115.063429 -9.360872 4.699624 -11.946739 -1.512381 3.170390 0.000000 0.000001 -0.000000 0.000000 0.000001 -0.000000 0.000000 0.000002 -0.000001 0.073656 -0.038204 -0.959483 -0.346784 0.144169 -0.842436 -0.347552 0.125594 -0.845266 -0.112470 -0.940731 4.410024 -12.204728 0.658007 -1.125665 -0.000001 0.000000 -0.000000 -0.000001 0.000000 -0.000000 -0.000001 0.000000 -0.000000 0.620840 1.414229 -6.038222 26.221013 -51.462576 -51.641848 0.000004 -17.090580 -0.000003 -16.936769 0.954474 15.416014 -22.211452 19.916616 14.100863 3.939057 7.948709 0.746825 -0.000001 -0.000001 -0.000006 0.129382 1.331222 -11.102408 0.150924 1.436590 -11.994003 0.000000 -0.000001 -0.000002 0.129013 1.329334 -11.086417 0.151323 1.438481 -12.009981 0.000003 0.000001 0.000000 0.129378 1.331221 -11.102410 0.150923 1.436592 -11.993991 0.000001 0.000000 -0.000000 0.895038 5.312853 -10.636357 0.145772 -2.619055 -12.493630 -0.000001 0.000000 0.000001 0.000001 0.000000 0.000000 3.324222 7.278490 11.067800 27.385089 31.841755 50.597495 0.000007 37.801194 -0.000004 -24.839171 -6.028719 -17.023787 9.915807 -9.350397 -20.480776 4.637196 -8.634128 -0.225403 -0.000002 -0.000002 -0.000001 0.074586 -1.017712 8.381802 0.113175 -1.251952 10.330542 -0.000003 -0.000000 0.000002 0.074586 -1.017718 8.381800 0.113180 -1.251946 10.330540 0.000000 0.000001 0.000002 0.074587 -1.017715 8.381790 0.113175 -1.251942 10.330555 -0.000003 -0.000000 0.000002 0.074579 -1.017719 8.381786 0.113185 -1.251945 10.330550 -0.000005 0.000002 -0.000001 0.000000 -0.000001 -0.000001 -0.000000 0.000000 0.000000 -0.000000 0.000000 0.000000 -0.000000 0.000000 0.000000 -0.000000 0.000000 0.000000 -0.000000 0.000000 0.000000 -0.000000 0.000000 0.000000 -0.000000 0.000000 0.000000 -0.000000 0.000000 0.000000 -0.000000 0.000000 0.000000 -0.000000 -0.000000 0.000000 -0.000000 -0.000000 0.000000 0.000000 -0.000000 0.000000 
3.894368 43.131378 17.591536 1.221621 3.181539 -0.111149 0.000000 0.000000 -0.000000 -18.389822 -5.920076 10.778372 117.385544 9.395960 -4.263523 -8.127127 2.705974 -4.992104 0.000000 0.000002 -0.000001 0.000000 0.000002 -0.000002 0.000001 0.000001 0.000000 -13.130868 -0.128851 -12.368993 115.136458 -9.348719 4.723686 -11.882664 -1.446775 3.518557 -0.000000 0.000000 -0.000000 -0.000000 0.000000 -0.000000 -0.000000 0.000001 0.000000 0.114712 -0.109181 -0.907105 -0.305703 0.109826 -0.812143 -0.306370 0.092323 -0.814251 -0.122983 -0.917312 4.383564 -12.157321 0.734184 -1.068041 -0.000001 0.000000 -0.000000 -0.000001 0.000000 -0.000000 -0.000001 0.000000 -0.000000 0.622609 1.410179 -6.065996 25.866881 -51.658650 -51.824392 0.000008 -16.359222 0.000024 -17.927498 1.002875 14.874409 -22.369961 20.045149 14.204132 3.939056 7.948706 0.746824 -0.000001 -0.000000 -0.000002 0.132235 1.345668 -11.224389 0.153134 1.446902 -12.081438 -0.000001 -0.000001 -0.000004 0.131859 1.343774 -11.208398 0.153530 1.448791 -12.097442 0.000008 -0.000001 0.000002 0.132235 1.345664 -11.224392 0.153125 1.446906 -12.081449 0.000002 -0.000001 0.000001 0.906411 5.325652 -10.759033 0.148058 -2.608763 -12.580934 -0.000003 -0.000002 0.000001 0.000000 0.000001 0.000000 3.350889 7.358906 11.069153 27.045604 32.003022 51.030744 0.000013 36.494165 -0.000020 -25.432665 -6.423030 -16.268500 10.100695 -9.471303 -20.488153 4.637199 -8.634128 -0.225402 0.000000 -0.000001 -0.000001 0.077306 -1.036060 8.533957 0.114709 -1.260350 10.400677 0.000003 0.000001 0.000002 0.077305 -1.036058 8.533966 0.114711 -1.260346 10.400704 0.000001 0.000000 -0.000002 0.077301 -1.036057 8.533968 0.114720 -1.260356 10.400672 0.000001 0.000003 0.000001 0.077304 -1.036057 8.533957 0.114717 -1.260354 10.400669 -0.000000 -0.000001 -0.000002 -0.000002 -0.000000 -0.000001 -0.000000 0.000000 -0.000000 -0.000000 0.000000 -0.000000 -0.000000 0.000000 -0.000000 -0.000000 0.000000 -0.000000 -0.000000 0.000000 -0.000000 -0.000000 0.000000 -0.000000 -0.000000 0.000000 -0.000000 -0.000000 0.000000 -0.000000 -0.000000 0.000000 -0.000000 -0.000000 0.000000 0.000000 -0.000000 0.000000 0.000000 0.000000 0.000000 -0.000000 
3.904024 43.122322 17.569685 1.297494 3.187401 -0.156598 -0.000000 -0.000000 -0.000000 -18.494974 -5.903707 10.831363 117.458654 9.392276 -4.259110 -8.206918 2.730405 -4.992588 0.000000 -0.000001 -0.000001 0.000000 -0.000001 -0.000001 0.000000 0.000002 -0.000000 -13.212247 -0.069826 -12.372309 115.200238 -9.339199 4.749641 -11.919810 -1.452076 3.772046 0.000000 -0.000002 0.000000 0.000000 -0.000002 0.000000 0.000001 -0.000000 -0.000000 0.142201 -0.190668 -0.830588 -0.274450 0.064164 -0.763865 -0.274946 0.048137 -0.765010 -0.145636 -0.872075 4.288353 -12.064119 0.864540 -1.063553 -0.000001 -0.000000 0.000000 -0.000001 -0.000000 0.000000 -0.000001 -0.000000 0.000000 0.618672 1.503397 -6.274299 25.884585 -51.805875 -51.600174 0.000002 -15.997227 0.000010 -18.695920 1.259668 14.412191 -22.488859 20.140898 14.281902 3.939061 7.948704 0.746797 0.000002 -0.000001 -0.000001 0.134386 1.356462 -11.315621 0.154783 1.454625 -12.146881 0.000000 0.000000 -0.000002 0.134018 1.354584 -11.299614 0.155182 1.456512 -12.162878 0.000001 -0.000001 0.000000 0.134387 1.356470 -11.315621 0.154782 1.454605 -12.146887 -0.000003 0.000000 -0.000000 0.914947 5.335212 -10.850744 0.149774 -2.601057 -12.646249 0.000002 0.000001 -0.000002 0.000001 0.000000 0.000001 3.375060 7.511069 11.072180 26.802251 32.234525 51.360581 0.000005 35.264595 -0.000002 -25.864183 -6.784033 -15.519634 10.238935 -9.561591 -20.493098 4.637199 -8.634127 -0.225402 -0.000002 -0.000003 0.000001 0.079378 -1.049768 8.647759 0.115859 -1.266639 10.453155 -0.000001 0.000002 0.000002 0.079379 -1.049766 8.647777 0.115859 -1.266641 10.453137 0.000002 0.000000 -0.000000 0.079380 -1.049769 8.647770 0.115862 -1.266633 10.453140 -0.000001 0.000003 0.000001 0.079382 -1.049762 8.647779 0.115859 -1.266639 10.453126 0.000001 -0.000001 -0.000002 -0.000004 -0.000001 0.000001 0.000000 -0.000000 0.000000 0.000000 -0.000000 0.000000 0.000000 -0.000000 0.000000 0.000000 -0.000000 0.000000 0.000000 -0.000000 0.000000 0.000000 -0.000000 -0.000000 0.000000 -0.000000 0.000000 0.000000 -0.000000 0.000000 0.000000 -0.000000 -0.000000 0.000000 0.000000 -0.000000 0.000000 0.000000 -0.000000 -0.000000 -0.000000 -0.000000 
3.917164 43.113022 17.557257 1.399368 3.155630 -0.191859 -0.000000 -0.000000 0.000000 -18.599971 -5.913361 10.849429 117.508760 9.388705 -4.266050 -8.236492 2.699012 -5.073855 -0.000000 0.000001 0.000001 -0.000000 0.000001 0.000000 0.000000 -0.000001 0.000000 -13.360612 -0.026744 -12.334342 115.255768 -9.339821 4.748710 -11.984074 -1.596130 3.803503 0.000000 -0.000001 0.000000 0.000000 -0.000001 0.000000 0.000000 -0.000000 -0.000000 0.131572 -0.277920 -0.739204 -0.276911 0.007858 -0.705092 -0.277157 -0.006698 -0.704979 -0.237715 -0.799309 4.143914 -11.967403 1.097246 -1.092302 -0.000000 -0.000000 -0.000000 -0.000000 -0.000000 -0.000000 -0.000000 -0.000000 -0.000000 0.616490 1.606595 -6.540555 26.129871 -51.814136 -51.182125 -0.000001 -16.015936 -0.000013 -19.435616 1.683903 14.006314 -22.566221 20.202909 14.332611 3.939060 7.948697 0.746793 0.000000 -0.000000 0.000001 0.135791 1.363480 -11.374860 0.155870 1.459633 -12.189431 0.000001 0.000001 -0.000002 0.135420 1.361581 -11.358850 0.156274 1.461519 -12.205430 0.000002 0.000000 0.000000 0.135795 1.363478 -11.374853 0.155867 1.459627 -12.189447 -0.000000 -0.000001 0.000003 0.920486 5.341403 -10.910326 0.150900 -2.596045 -12.688694 -0.000003 -0.000000 0.000001 -0.000002 0.000000 0.000000 3.392838 7.683885 11.075863 26.653497 32.578797 51.648128 0.000001 34.059227 0.000004 -26.085698 -7.116771 -14.770168 10.328654 -9.620178 -20.496120 4.637207 -8.634122 -0.225395 0.000001 -0.000002 -0.000002 0.080729 -1.058666 8.721662 0.116628 -1.270720 10.487212 -0.000000 -0.000001 0.000002 0.080726 -1.058670 8.721666 0.116638 -1.270717 10.487209 0.000002 -0.000003 0.000001 0.080727 -1.058666 8.721665 0.116622 -1.270719 10.487209 0.000001 0.000000 0.000000 0.080726 -1.058678 8.721648 0.116628 -1.270710 10.487220 0.000001 -0.000000 -0.000001 -0.000001 0.000001 -0.000000 0.000000 -0.000000 0.000000 0.000000 -0.000000 0.000000 0.000000 -0.000000 0.000000 0.000000 -0.000000 0.000000 0.000000 -0.000000 0.000000 0.000000 -0.000000 0.000000 0.000000 -0.000000 0.000000 0.000000 -0.000000 0.000000 0.000000 -0.000000 0.000000 -0.000000 0.000000 -0.000000 -0.000000 0.000000 -0.000000 -0.000000 -0.000000 0.000000 
